# xmcd CD database file
# Copyright (C) 1995-1998 Ti Kan
#
# Track frame offsets:
#	182
#	15890
#	34200
#	60290
#	84027
#	107867
#	132945
#	165070
#
# Disc length: 2513 seconds
#
# Revision: 1
# Processed by: cddbd v1.4b42PL1 Copyright (c) Steve Scherf et al.
# Submitted via: CDex 1.30Release
#
DISCID=4909cf08
DTITLE=Junior Mance Trio - Smokey Blues
DYEAR=1900
DGENRE=Blues
TTITLE0=9 - 20 Special
TTITLE1=Georgia On My Mind
TTITLE2=Small Fry
TTITLE3=In The Evenin'
TTITLE4=I Want A Little Girl
TTITLE5=Deep
TTITLE6=Ease On Down The Road
TTITLE7=Smokey Blues
EXTD=ID3G:   0
EXTT0=
EXTT1=
EXTT2=
EXTT3=
EXTT4=
EXTT5=
EXTT6=
EXTT7=
PLAYORDER=
